<mxfile host="app.diagrams.net" modified="2023-12-19T15:57:26.272Z" agent="Mozilla/5.0 (Windows NT 10.0; Win64; x64) AppleWebKit/537.36 (KHTML, like Gecko) Chrome/120.0.0.0 Safari/537.36 Edg/120.0.0.0" etag="Fgyh2olNXMZOw35bTMAc" version="22.1.11" type="github">
  <diagram id="C5RBs43oDa-KdzZeNtuy" name="Page-1">
    <mxGraphModel dx="872" dy="491" grid="1" gridSize="10" guides="1" tooltips="1" connect="1" arrows="1" fold="1" page="1" pageScale="1" pageWidth="827" pageHeight="1169" math="0" shadow="0">
      <root>
        <mxCell id="WIyWlLk6GJQsqaUBKTNV-0" />
        <mxCell id="WIyWlLk6GJQsqaUBKTNV-1" parent="WIyWlLk6GJQsqaUBKTNV-0" />
        <mxCell id="A00-AkD2u2ZKdTpJQuzB-2" style="edgeStyle=orthogonalEdgeStyle;rounded=0;orthogonalLoop=1;jettySize=auto;html=1;exitX=0.5;exitY=1;exitDx=0;exitDy=0;entryX=0.25;entryY=0;entryDx=0;entryDy=0;" edge="1" parent="WIyWlLk6GJQsqaUBKTNV-1" source="A00-AkD2u2ZKdTpJQuzB-0" target="A00-AkD2u2ZKdTpJQuzB-1">
          <mxGeometry relative="1" as="geometry" />
        </mxCell>
        <mxCell id="A00-AkD2u2ZKdTpJQuzB-0" value="Start&amp;nbsp;" style="ellipse;whiteSpace=wrap;html=1;" vertex="1" parent="WIyWlLk6GJQsqaUBKTNV-1">
          <mxGeometry x="100" y="10" width="120" height="80" as="geometry" />
        </mxCell>
        <mxCell id="A00-AkD2u2ZKdTpJQuzB-4" style="edgeStyle=orthogonalEdgeStyle;rounded=0;orthogonalLoop=1;jettySize=auto;html=1;exitX=0;exitY=1;exitDx=0;exitDy=0;entryX=0;entryY=0;entryDx=0;entryDy=0;" edge="1" parent="WIyWlLk6GJQsqaUBKTNV-1" source="A00-AkD2u2ZKdTpJQuzB-1" target="A00-AkD2u2ZKdTpJQuzB-3">
          <mxGeometry relative="1" as="geometry" />
        </mxCell>
        <mxCell id="A00-AkD2u2ZKdTpJQuzB-1" value="Read Totalsales" style="shape=parallelogram;perimeter=parallelogramPerimeter;whiteSpace=wrap;html=1;fixedSize=1;" vertex="1" parent="WIyWlLk6GJQsqaUBKTNV-1">
          <mxGeometry x="130" y="160" width="120" height="60" as="geometry" />
        </mxCell>
        <mxCell id="A00-AkD2u2ZKdTpJQuzB-6" style="edgeStyle=orthogonalEdgeStyle;rounded=0;orthogonalLoop=1;jettySize=auto;html=1;exitX=0.5;exitY=1;exitDx=0;exitDy=0;" edge="1" parent="WIyWlLk6GJQsqaUBKTNV-1" source="A00-AkD2u2ZKdTpJQuzB-3" target="A00-AkD2u2ZKdTpJQuzB-5">
          <mxGeometry relative="1" as="geometry" />
        </mxCell>
        <mxCell id="A00-AkD2u2ZKdTpJQuzB-12" style="edgeStyle=orthogonalEdgeStyle;rounded=0;orthogonalLoop=1;jettySize=auto;html=1;exitX=1;exitY=0.5;exitDx=0;exitDy=0;entryX=0;entryY=0.5;entryDx=0;entryDy=0;" edge="1" parent="WIyWlLk6GJQsqaUBKTNV-1" source="A00-AkD2u2ZKdTpJQuzB-3" target="A00-AkD2u2ZKdTpJQuzB-9">
          <mxGeometry relative="1" as="geometry" />
        </mxCell>
        <mxCell id="A00-AkD2u2ZKdTpJQuzB-3" value="TotalSales &amp;gt;= 1M" style="rhombus;whiteSpace=wrap;html=1;" vertex="1" parent="WIyWlLk6GJQsqaUBKTNV-1">
          <mxGeometry x="95" y="340" width="130" height="110" as="geometry" />
        </mxCell>
        <mxCell id="A00-AkD2u2ZKdTpJQuzB-8" style="edgeStyle=orthogonalEdgeStyle;rounded=0;orthogonalLoop=1;jettySize=auto;html=1;exitX=0.5;exitY=1;exitDx=0;exitDy=0;entryX=0;entryY=0.5;entryDx=0;entryDy=0;" edge="1" parent="WIyWlLk6GJQsqaUBKTNV-1" source="A00-AkD2u2ZKdTpJQuzB-5" target="A00-AkD2u2ZKdTpJQuzB-7">
          <mxGeometry relative="1" as="geometry" />
        </mxCell>
        <mxCell id="A00-AkD2u2ZKdTpJQuzB-5" value="Percentage= 0,01" style="rounded=0;whiteSpace=wrap;html=1;" vertex="1" parent="WIyWlLk6GJQsqaUBKTNV-1">
          <mxGeometry x="105" y="530" width="110" height="60" as="geometry" />
        </mxCell>
        <mxCell id="A00-AkD2u2ZKdTpJQuzB-28" style="edgeStyle=orthogonalEdgeStyle;rounded=0;orthogonalLoop=1;jettySize=auto;html=1;exitX=0.5;exitY=1;exitDx=0;exitDy=0;" edge="1" parent="WIyWlLk6GJQsqaUBKTNV-1" source="A00-AkD2u2ZKdTpJQuzB-7" target="A00-AkD2u2ZKdTpJQuzB-27">
          <mxGeometry relative="1" as="geometry" />
        </mxCell>
        <mxCell id="A00-AkD2u2ZKdTpJQuzB-7" value="Totalcommision =Totalsales* percentage&amp;nbsp;&amp;nbsp;" style="rounded=0;whiteSpace=wrap;html=1;" vertex="1" parent="WIyWlLk6GJQsqaUBKTNV-1">
          <mxGeometry x="350" y="630" width="120" height="60" as="geometry" />
        </mxCell>
        <mxCell id="A00-AkD2u2ZKdTpJQuzB-13" style="edgeStyle=orthogonalEdgeStyle;rounded=0;orthogonalLoop=1;jettySize=auto;html=1;exitX=1;exitY=0.5;exitDx=0;exitDy=0;" edge="1" parent="WIyWlLk6GJQsqaUBKTNV-1" source="A00-AkD2u2ZKdTpJQuzB-9" target="A00-AkD2u2ZKdTpJQuzB-10">
          <mxGeometry relative="1" as="geometry" />
        </mxCell>
        <mxCell id="A00-AkD2u2ZKdTpJQuzB-9" value="TotalSales &amp;gt;= 500K" style="rhombus;whiteSpace=wrap;html=1;" vertex="1" parent="WIyWlLk6GJQsqaUBKTNV-1">
          <mxGeometry x="270" y="340" width="130" height="110" as="geometry" />
        </mxCell>
        <mxCell id="A00-AkD2u2ZKdTpJQuzB-14" style="edgeStyle=orthogonalEdgeStyle;rounded=0;orthogonalLoop=1;jettySize=auto;html=1;exitX=1;exitY=0.5;exitDx=0;exitDy=0;" edge="1" parent="WIyWlLk6GJQsqaUBKTNV-1" source="A00-AkD2u2ZKdTpJQuzB-10" target="A00-AkD2u2ZKdTpJQuzB-11">
          <mxGeometry relative="1" as="geometry" />
        </mxCell>
        <mxCell id="A00-AkD2u2ZKdTpJQuzB-26" style="edgeStyle=orthogonalEdgeStyle;rounded=0;orthogonalLoop=1;jettySize=auto;html=1;exitX=0.5;exitY=1;exitDx=0;exitDy=0;entryX=0.418;entryY=-0.033;entryDx=0;entryDy=0;entryPerimeter=0;" edge="1" parent="WIyWlLk6GJQsqaUBKTNV-1" source="A00-AkD2u2ZKdTpJQuzB-10" target="A00-AkD2u2ZKdTpJQuzB-15">
          <mxGeometry relative="1" as="geometry">
            <mxPoint x="505" y="510" as="targetPoint" />
            <Array as="points">
              <mxPoint x="505" y="480" />
              <mxPoint x="506" y="480" />
            </Array>
          </mxGeometry>
        </mxCell>
        <mxCell id="A00-AkD2u2ZKdTpJQuzB-10" value="TotalSales &amp;gt;= 100K" style="rhombus;whiteSpace=wrap;html=1;" vertex="1" parent="WIyWlLk6GJQsqaUBKTNV-1">
          <mxGeometry x="440" y="340" width="130" height="110" as="geometry" />
        </mxCell>
        <mxCell id="A00-AkD2u2ZKdTpJQuzB-24" style="edgeStyle=orthogonalEdgeStyle;rounded=0;orthogonalLoop=1;jettySize=auto;html=1;exitX=1;exitY=0.5;exitDx=0;exitDy=0;" edge="1" parent="WIyWlLk6GJQsqaUBKTNV-1" source="A00-AkD2u2ZKdTpJQuzB-11" target="A00-AkD2u2ZKdTpJQuzB-17">
          <mxGeometry relative="1" as="geometry" />
        </mxCell>
        <mxCell id="A00-AkD2u2ZKdTpJQuzB-25" style="edgeStyle=orthogonalEdgeStyle;rounded=0;orthogonalLoop=1;jettySize=auto;html=1;exitX=0.5;exitY=1;exitDx=0;exitDy=0;entryX=0.5;entryY=0;entryDx=0;entryDy=0;" edge="1" parent="WIyWlLk6GJQsqaUBKTNV-1" source="A00-AkD2u2ZKdTpJQuzB-11" target="A00-AkD2u2ZKdTpJQuzB-18">
          <mxGeometry relative="1" as="geometry" />
        </mxCell>
        <mxCell id="A00-AkD2u2ZKdTpJQuzB-11" value="TotalSales &amp;gt;= 50" style="rhombus;whiteSpace=wrap;html=1;" vertex="1" parent="WIyWlLk6GJQsqaUBKTNV-1">
          <mxGeometry x="610" y="340" width="130" height="110" as="geometry" />
        </mxCell>
        <mxCell id="A00-AkD2u2ZKdTpJQuzB-21" style="edgeStyle=orthogonalEdgeStyle;rounded=0;orthogonalLoop=1;jettySize=auto;html=1;exitX=0.5;exitY=1;exitDx=0;exitDy=0;entryX=1;entryY=0.5;entryDx=0;entryDy=0;" edge="1" parent="WIyWlLk6GJQsqaUBKTNV-1" source="A00-AkD2u2ZKdTpJQuzB-15" target="A00-AkD2u2ZKdTpJQuzB-7">
          <mxGeometry relative="1" as="geometry" />
        </mxCell>
        <mxCell id="A00-AkD2u2ZKdTpJQuzB-15" value="Percentage= 0,03" style="rounded=0;whiteSpace=wrap;html=1;" vertex="1" parent="WIyWlLk6GJQsqaUBKTNV-1">
          <mxGeometry x="460" y="520" width="110" height="60" as="geometry" />
        </mxCell>
        <mxCell id="A00-AkD2u2ZKdTpJQuzB-20" style="edgeStyle=orthogonalEdgeStyle;rounded=0;orthogonalLoop=1;jettySize=auto;html=1;exitX=0.5;exitY=1;exitDx=0;exitDy=0;entryX=0;entryY=0.5;entryDx=0;entryDy=0;" edge="1" parent="WIyWlLk6GJQsqaUBKTNV-1" source="A00-AkD2u2ZKdTpJQuzB-16" target="A00-AkD2u2ZKdTpJQuzB-7">
          <mxGeometry relative="1" as="geometry" />
        </mxCell>
        <mxCell id="A00-AkD2u2ZKdTpJQuzB-16" value="Percentage= 0,02" style="rounded=0;whiteSpace=wrap;html=1;" vertex="1" parent="WIyWlLk6GJQsqaUBKTNV-1">
          <mxGeometry x="291" y="525" width="110" height="60" as="geometry" />
        </mxCell>
        <mxCell id="A00-AkD2u2ZKdTpJQuzB-23" style="edgeStyle=orthogonalEdgeStyle;rounded=0;orthogonalLoop=1;jettySize=auto;html=1;exitX=0.5;exitY=1;exitDx=0;exitDy=0;" edge="1" parent="WIyWlLk6GJQsqaUBKTNV-1" source="A00-AkD2u2ZKdTpJQuzB-17">
          <mxGeometry relative="1" as="geometry">
            <mxPoint x="470" y="670" as="targetPoint" />
            <Array as="points">
              <mxPoint x="805" y="660" />
              <mxPoint x="471" y="660" />
            </Array>
          </mxGeometry>
        </mxCell>
        <mxCell id="A00-AkD2u2ZKdTpJQuzB-17" value="Percentage= 0" style="rounded=0;whiteSpace=wrap;html=1;" vertex="1" parent="WIyWlLk6GJQsqaUBKTNV-1">
          <mxGeometry x="750" y="500" width="110" height="60" as="geometry" />
        </mxCell>
        <mxCell id="A00-AkD2u2ZKdTpJQuzB-22" style="edgeStyle=orthogonalEdgeStyle;rounded=0;orthogonalLoop=1;jettySize=auto;html=1;exitX=0.5;exitY=1;exitDx=0;exitDy=0;" edge="1" parent="WIyWlLk6GJQsqaUBKTNV-1" source="A00-AkD2u2ZKdTpJQuzB-18">
          <mxGeometry relative="1" as="geometry">
            <mxPoint x="470" y="664" as="targetPoint" />
            <Array as="points">
              <mxPoint x="675" y="660" />
              <mxPoint x="471" y="660" />
            </Array>
          </mxGeometry>
        </mxCell>
        <mxCell id="A00-AkD2u2ZKdTpJQuzB-18" value="Percentage= 0,05" style="rounded=0;whiteSpace=wrap;html=1;" vertex="1" parent="WIyWlLk6GJQsqaUBKTNV-1">
          <mxGeometry x="620" y="510" width="110" height="60" as="geometry" />
        </mxCell>
        <mxCell id="A00-AkD2u2ZKdTpJQuzB-19" style="edgeStyle=orthogonalEdgeStyle;rounded=0;orthogonalLoop=1;jettySize=auto;html=1;exitX=0.5;exitY=1;exitDx=0;exitDy=0;entryX=0.4;entryY=0.05;entryDx=0;entryDy=0;entryPerimeter=0;" edge="1" parent="WIyWlLk6GJQsqaUBKTNV-1" source="A00-AkD2u2ZKdTpJQuzB-9" target="A00-AkD2u2ZKdTpJQuzB-16">
          <mxGeometry relative="1" as="geometry" />
        </mxCell>
        <mxCell id="A00-AkD2u2ZKdTpJQuzB-30" style="edgeStyle=orthogonalEdgeStyle;rounded=0;orthogonalLoop=1;jettySize=auto;html=1;exitX=0.5;exitY=1;exitDx=0;exitDy=0;entryX=0.5;entryY=0;entryDx=0;entryDy=0;" edge="1" parent="WIyWlLk6GJQsqaUBKTNV-1" source="A00-AkD2u2ZKdTpJQuzB-27" target="A00-AkD2u2ZKdTpJQuzB-29">
          <mxGeometry relative="1" as="geometry" />
        </mxCell>
        <mxCell id="A00-AkD2u2ZKdTpJQuzB-27" value="Print Totalcommision" style="shape=parallelogram;perimeter=parallelogramPerimeter;whiteSpace=wrap;html=1;fixedSize=1;" vertex="1" parent="WIyWlLk6GJQsqaUBKTNV-1">
          <mxGeometry x="360" y="770" width="120" height="60" as="geometry" />
        </mxCell>
        <mxCell id="A00-AkD2u2ZKdTpJQuzB-29" value="END" style="ellipse;whiteSpace=wrap;html=1;" vertex="1" parent="WIyWlLk6GJQsqaUBKTNV-1">
          <mxGeometry x="360" y="900" width="120" height="80" as="geometry" />
        </mxCell>
        <mxCell id="A00-AkD2u2ZKdTpJQuzB-31" value="no" style="text;html=1;strokeColor=none;fillColor=none;align=center;verticalAlign=middle;whiteSpace=wrap;rounded=0;" vertex="1" parent="WIyWlLk6GJQsqaUBKTNV-1">
          <mxGeometry x="215" y="340" width="60" height="30" as="geometry" />
        </mxCell>
        <mxCell id="A00-AkD2u2ZKdTpJQuzB-32" value="no" style="text;html=1;strokeColor=none;fillColor=none;align=center;verticalAlign=middle;whiteSpace=wrap;rounded=0;" vertex="1" parent="WIyWlLk6GJQsqaUBKTNV-1">
          <mxGeometry x="580" y="330" width="60" height="30" as="geometry" />
        </mxCell>
        <mxCell id="A00-AkD2u2ZKdTpJQuzB-33" value="no" style="text;html=1;strokeColor=none;fillColor=none;align=center;verticalAlign=middle;whiteSpace=wrap;rounded=0;" vertex="1" parent="WIyWlLk6GJQsqaUBKTNV-1">
          <mxGeometry x="400" y="340" width="60" height="30" as="geometry" />
        </mxCell>
        <mxCell id="A00-AkD2u2ZKdTpJQuzB-35" value="no" style="text;html=1;strokeColor=none;fillColor=none;align=center;verticalAlign=middle;whiteSpace=wrap;rounded=0;" vertex="1" parent="WIyWlLk6GJQsqaUBKTNV-1">
          <mxGeometry x="730" y="350" width="60" height="30" as="geometry" />
        </mxCell>
      </root>
    </mxGraphModel>
  </diagram>
</mxfile>
